<svg version="1.1" id="Layer_1" xmlns="http://www.w3.org/2000/svg" xmlns:xlink="http://www.w3.org/1999/xlink" x="0px" y="0px"
	 width="100%" viewBox="0 0 512 512" enable-background="new 0 0 512 512" xml:space="preserve">
<path fill="#000000" opacity="1.000000" stroke="none" 
	d="
M281.231934,89.795044 
	C308.842163,125.724709 332.954498,163.392151 350.987762,204.688507 
	C362.353790,230.716934 371.414154,257.559814 373.977051,286.032410 
	C377.440735,324.511932 367.345306,359.338623 343.480774,389.831726 
	C322.228180,416.987396 295.248718,436.890503 264.001465,451.233704 
	C259.563080,453.270996 255.641357,453.380188 251.199707,451.264648 
	C208.029373,430.703003 172.481384,402.133453 152.349014,357.377930 
	C137.613190,324.619171 137.719421,290.864105 146.209167,256.682190 
	C156.891663,213.671661 176.595200,174.696442 200.186432,137.541748 
	C215.916595,112.767715 233.266312,89.151741 252.390350,66.866859 
	C253.889114,65.120392 255.511887,63.480350 257.559052,61.270531 
	C266.122559,70.478493 273.626373,79.946609 281.231934,89.795044 
M230.393494,318.095306 
	C223.518341,310.141541 215.927902,302.907349 208.303680,295.679810 
	C195.254181,283.309235 181.808304,271.287842 171.474243,256.345428 
	C169.812302,253.942352 168.944016,250.918427 166.333954,249.121048 
	C164.681580,250.251740 164.622452,252.009125 164.183105,253.561111 
	C161.325089,263.657166 159.225479,273.869843 158.045120,284.337830 
	C154.952332,311.766327 159.319458,337.685486 172.442108,362.076141 
	C185.790527,386.886414 205.283722,405.957245 228.210785,421.755890 
	C234.450806,426.055786 241.209839,429.602570 247.561600,433.394043 
	C249.430191,431.688080 249.015564,430.092987 249.018570,428.668701 
	C249.067032,405.693420 248.993774,382.717529 249.125351,359.742828 
	C249.178665,350.430420 246.257172,342.072174 241.862869,334.083405 
	C238.796707,328.509125 234.887833,323.527039 230.393494,318.095306 
M266.006226,374.500031 
	C266.006226,393.903595 266.006226,413.307159 266.006226,432.857849 
	C267.301300,432.770630 267.858307,432.887085 268.245667,432.682404 
	C271.040558,431.205780 273.855865,429.755371 276.564056,428.129028 
	C304.196838,411.534424 327.297638,390.355591 342.833740,361.733551 
	C360.949860,328.358368 361.226257,293.297302 352.043243,257.483337 
	C351.298798,254.579910 351.237122,251.266663 348.707214,248.443497 
	C346.703125,251.450821 344.999664,254.084595 343.219666,256.665588 
	C331.276886,273.982391 315.144379,287.333313 300.262604,301.853455 
	C292.379028,309.545502 284.932404,317.548523 278.185364,326.284698 
	C267.311066,340.364929 264.812103,356.408813 266.006226,374.500031 
M230.957779,170.565933 
	C238.446228,183.356079 247.491882,194.979218 257.561768,206.797073 
	C270.463959,190.815430 283.470856,175.664764 290.521088,156.615417 
	C294.953705,144.638626 294.255127,133.237701 285.854309,122.771294 
	C280.445251,116.032272 275.714569,108.752785 270.552399,101.810326 
	C266.508911,96.372406 262.269775,91.079979 258.366486,86.044098 
	C256.550812,86.050194 255.934097,86.905342 255.342606,87.670845 
	C245.068314,100.967613 234.972961,114.397896 225.616119,128.362762 
	C223.453842,131.589935 222.499847,135.242722 222.126495,139.154236 
	C221.041351,150.522858 225.413055,160.319290 230.957779,170.565933 
M273.628143,212.105850 
	C266.423065,220.912109 267.537781,218.390823 273.645630,226.181946 
	C277.958313,231.683136 282.411011,237.077713 286.616638,242.658951 
	C294.126709,252.625381 300.842621,263.082916 305.135254,274.984344 
	C316.809998,267.410339 332.393280,247.354858 336.176178,234.990051 
	C338.678558,226.810654 338.910950,218.505402 335.533234,210.533844 
	C329.424408,196.116867 322.381592,182.138321 314.518127,168.597351 
	C312.569580,165.241959 311.076691,161.488754 307.477173,158.080841 
	C299.821167,178.555756 287.163940,195.194839 273.628143,212.105850 
M230.503510,197.970108 
	C221.297348,185.794632 213.247604,172.921875 207.770905,158.742798 
	C205.691803,159.312759 205.327469,160.514099 204.746445,161.477280 
	C196.311218,175.460983 188.837265,189.942444 182.089767,204.814941 
	C179.667908,210.153122 177.486771,215.451050 177.201874,221.428391 
	C176.773254,230.421555 179.438736,238.516235 183.975204,246.080841 
	C190.679810,257.260864 199.614685,266.466003 209.669800,275.502747 
	C212.092743,269.544739 214.218460,264.324615 217.113129,259.469452 
	C224.815811,246.550140 233.920746,234.663895 243.865097,223.424957 
	C246.563019,220.375809 246.805878,218.151184 243.976028,214.953934 
	C239.350327,209.727676 235.231598,204.052704 230.503510,197.970108 
M282.013092,263.460571 
	C274.747345,252.375961 266.675140,241.937729 257.671326,231.835815 
	C252.263107,237.007797 248.318298,242.371750 244.349487,247.657166 
	C237.265472,257.091187 229.925934,266.414642 226.270294,277.926208 
	C224.038681,284.953491 225.436768,290.898468 230.802338,296.124939 
	C239.401093,304.500824 247.276062,313.524170 254.087662,323.447174 
	C255.160629,325.010284 255.533493,327.193024 258.086945,328.167725 
	C265.460602,315.185028 275.795715,304.623505 286.160950,294.067719 
	C288.674591,291.507904 289.774872,288.181213 289.729156,284.485352 
	C289.634369,276.819946 286.100128,270.428162 282.013092,263.460571 
z"/>
</svg>